<svg width="24" height="24" viewBox="0 0 24 24" fill="none" xmlns="http://www.w3.org/2000/svg">
<g clip-path="url(#clip0_28_175)">
<path d="M12.9234 3.075C12.8672 3.075 12.7969 3.10313 12.7359 3.1875C13.0078 2.79844 12.4312 2.96719 12.3984 2.59688C12.0703 2.35313 12.1875 2.19375 12.0938 2.18437L11.9906 2.1C12.1922 2.175 12.2625 2.18906 12.3188 2.18906H12.4125C12.4828 2.18906 12.6 2.20312 12.8766 2.2875C13.5094 2.33437 13.9641 3.01875 14.1797 3.0375C14.4 3.15469 14.3906 3.17813 14.3391 3.17813C14.325 3.17813 14.3063 3.17344 14.2875 3.17344C14.2688 3.17344 14.2547 3.16875 14.2406 3.16875C14.1891 3.16875 14.2031 3.19219 14.5031 3.33281C14.4328 3.35156 15.0281 3.61406 15.0328 4.02656C15.0516 4.18594 14.9859 4.29375 14.8781 4.29375C14.7844 4.29375 14.6672 4.22344 14.5406 4.04531C14.1187 3.55781 13.2281 3.51094 12.8438 3.21562C13.0828 3.19687 13.0359 3.075 12.9234 3.075ZM15.0656 3.23906C15.1078 3.23906 15.0516 3.1875 14.9906 3.13594C14.925 3.08438 14.85 3.03281 14.85 3.03281L14.8547 3.0375C14.6016 2.93906 14.7562 2.91562 14.6203 2.85H14.6297C14.6578 2.85 14.6063 2.8125 14.5594 2.77031C14.5125 2.73281 14.4703 2.69063 14.5125 2.69063C14.5359 2.69063 14.5969 2.70469 14.7 2.74687C14.6672 2.7 14.5406 2.66719 14.3625 2.56875C14.6203 2.65313 14.8219 2.70469 14.8453 2.70469C14.8641 2.70469 14.7562 2.66719 14.4328 2.56875C14.4187 2.56875 14.4047 2.57344 14.3953 2.57344C14.3625 2.57344 14.3484 2.56406 14.3531 2.55469C14.3578 2.54531 14.3766 2.54063 14.4094 2.54063C14.8734 2.57812 15.2203 2.86875 15.1172 2.90625C15.0562 2.8875 15.0141 2.87813 14.9859 2.87813C14.925 2.87813 14.9531 2.92969 15.075 3.00469C15.0188 3.13594 16.0125 3.47344 16.125 3.59531C16.0687 3.5625 16.0313 3.55313 16.0125 3.55313C15.9375 3.55313 16.0359 3.69844 16.1344 3.76875C16.0734 3.825 16.0266 3.84375 15.9891 3.84375C15.8906 3.84375 15.8484 3.70781 15.7641 3.66562C15.7453 3.70312 15.7266 3.72188 15.7031 3.72188C15.6234 3.72188 15.525 3.525 15.4453 3.42188C15.4219 3.44531 15.3938 3.46406 15.3563 3.46406C15.2812 3.46406 15.1687 3.40313 14.9906 3.22969C15.0281 3.23438 15.0562 3.23906 15.0656 3.23906ZM16.1437 4.10156C16.3125 4.20469 16.4016 4.24687 16.4391 4.24687C16.5094 4.24687 16.4156 4.11562 16.3312 3.97969C16.2469 3.84844 16.1719 3.71719 16.2797 3.71719C16.3313 3.71719 16.425 3.74531 16.575 3.82031C16.9828 4.09219 17.6719 4.84219 17.9766 4.84219H18.0047C17.5125 4.48125 17.6578 3.77344 16.9688 3.59062C16.2891 3.20156 15.825 3.32344 15.2203 2.87813C15.3984 2.96719 15.6609 3.06563 15.7219 3.06563C15.7594 3.06563 15.7031 3.01875 15.4594 2.90156C15.4828 2.90625 15.5016 2.91094 15.5156 2.91094C15.6797 2.91094 14.4375 2.46563 14.3766 2.45625C14.8875 2.52656 15.7125 2.95312 15.825 2.95312C15.8391 2.95312 15.8391 2.94844 15.8391 2.93906C15.8203 2.925 15.8203 2.91563 15.8391 2.91563C15.9 2.91563 16.1531 3 16.4109 3.08438C16.6641 3.16875 16.9219 3.25781 16.9781 3.25781C16.9969 3.25781 16.9969 3.24844 16.9688 3.22969C19.1813 4.48594 21.0281 6.60469 21.6047 9.11719C21.3656 9.66562 21.5297 10.7109 21.1359 11.0156C20.6859 11.3953 21.5203 12.4969 21.3 13.1766C21.075 14.4047 20.1047 15.2437 20.0016 16.5C19.8234 17.3625 19.1719 18.4172 18.9 18.9656C18.6937 19.1719 18.1266 19.7672 18.0281 19.7672C17.9906 19.7672 18.0141 19.6781 18.1641 19.4391C18.2578 19.1719 18.8016 18.4734 18.5391 18.4734C18.525 18.4734 18.5109 18.4734 18.4922 18.4781C18.8156 18.15 17.775 18.2391 18.5016 17.7938C18.5859 17.6906 18.6047 17.6578 18.5859 17.6578C18.5625 17.6578 18.4969 17.6953 18.4219 17.7328C18.3422 17.7703 18.2484 17.8078 18.1734 17.8078C18.0562 17.8078 17.9766 17.7281 18.0234 17.4375C18.0047 17.4469 17.9859 17.4469 17.9719 17.4469C17.85 17.4469 17.8922 17.2078 17.8828 16.9688C17.8734 16.7297 17.8125 16.4906 17.4844 16.4906C17.4469 16.4906 17.4047 16.4953 17.3625 16.5C16.6031 16.0875 17.2641 14.9484 16.3922 14.5312C16.425 13.5844 17.6953 13.5375 18.1734 13.1531C18.2531 13.2 18.3281 13.2141 18.4031 13.2141C18.4875 13.2141 18.5625 13.1953 18.6281 13.1719C18.6937 13.1531 18.7547 13.1297 18.7969 13.1297C18.8063 13.1297 18.8156 13.1297 18.825 13.1344C18.0094 12.9188 18.6047 11.7844 19.2797 11.7844H19.3266C19.3781 11.2922 19.6312 11.4797 19.6594 11.0719C19.7016 11.0953 19.7438 11.1047 19.7859 11.1047C19.8984 11.1047 20.0016 11.025 20.0906 10.95C20.1797 10.8703 20.2547 10.7953 20.3203 10.7953C20.3719 10.7953 20.4188 10.8469 20.4609 10.9969C20.4141 10.7672 20.4281 10.6922 20.475 10.6922C20.5219 10.6922 20.6062 10.7719 20.7 10.8516C20.7891 10.9312 20.8922 11.0109 20.9719 11.0109H20.9953C21.5438 10.6219 20.9906 9.93281 21.2812 9.40313C21.0938 9.20156 21.0187 8.85938 21.1031 8.85938C21.1453 8.85938 21.2297 8.94375 21.3609 9.17344C21.5484 8.69531 21.0516 7.6125 20.6297 7.55156C20.6156 7.55156 20.6063 7.54688 20.5922 7.54688C20.5172 7.54688 20.4422 7.58437 20.3766 7.66406C20.3391 7.88438 20.4328 8.34844 20.3953 8.34844C20.3766 8.34844 20.3391 8.25469 20.2453 8.01094C20.1234 7.45312 19.2703 7.05 19.1812 6.70781C19.1766 6.7125 19.1766 6.7125 19.1719 6.7125C19.0734 6.7125 18.4406 6.15469 18.1641 6.09375C18.0563 5.98594 17.9812 5.94844 17.925 5.94844C17.8641 5.94844 17.8312 5.99531 17.8078 6.0375C17.7844 6.08438 17.7656 6.12656 17.7422 6.12656C17.7234 6.12656 17.7 6.09844 17.6578 6.01875C17.8031 5.73281 17.4281 5.46094 17.5312 5.46094C17.5687 5.46094 17.6813 5.49844 17.9109 5.59219C17.9484 5.61094 17.9672 5.61563 17.9766 5.61563C18.0047 5.61563 17.8922 5.54063 17.7281 5.46562C17.5641 5.39062 17.3578 5.31563 17.1844 5.31563C17.1 5.31563 17.025 5.33438 16.9688 5.38125C16.2422 5.20781 16.6406 4.96875 16.6031 4.96875H16.5938C16.3875 4.84688 16.4484 4.3875 16.1437 4.10156ZM19.3922 6.01875C19.4016 6.01875 19.3594 5.95781 19.2188 5.78438C18.9281 5.56875 18.6937 5.42344 18.9609 5.28281C18.8438 5.23125 18.7313 5.17031 18.6234 5.10469C18.6281 5.33437 18.8203 5.89219 18.9234 5.89219C18.9469 5.89219 18.9703 5.85938 18.9797 5.78906C18.9188 5.68125 18.9141 5.63906 18.9375 5.63906C18.975 5.63906 19.0828 5.73281 19.1859 5.83125C19.2891 5.92031 19.3828 6.01875 19.3922 6.01875ZM19.125 6.14531C19.2516 6.14531 19.2281 6.06562 18.8391 5.98594C18.6703 5.9625 18.8016 5.97188 18.6 5.925C18.7969 6.08437 19.0172 6.14531 19.125 6.14531ZM11.8359 5.67188C11.7797 5.6625 11.7375 5.6625 11.7047 5.6625C11.5688 5.6625 11.6297 5.71875 11.7094 5.775C11.7891 5.83125 11.8875 5.8875 11.8312 5.8875C11.7984 5.8875 11.7094 5.86875 11.5266 5.81719C10.6031 5.75156 11.8875 4.96875 11.6813 4.70625L11.7375 4.6875C12.1172 5.17031 11.4844 5.17969 11.8359 5.67188ZM12.2203 5.69063C12.1547 5.69063 12.0703 5.61563 11.9813 5.40469C11.8594 5.25938 11.9109 5.24063 12.0422 5.17031C12.4031 5.26406 12.3703 5.69063 12.2203 5.69063ZM8.98594 7.17656C9 7.17656 9.00937 7.18125 9.01875 7.18594C8.98125 7.19531 8.94375 7.20469 8.90625 7.20469C8.94375 7.18594 8.96719 7.17656 8.98594 7.17656ZM2.69062 8.34375C2.61094 8.51719 2.56875 8.5875 2.56406 8.5875C2.53125 8.5875 3.15469 7.06875 3.4125 6.79688C4.75781 4.58437 6.97031 2.89219 9.49219 2.25938H9.49688C9.5625 2.25938 9.4875 2.29219 9.39844 2.325C9.30937 2.35781 9.20156 2.39062 9.20156 2.39062C9.20156 2.39062 9.27187 2.36719 9.4875 2.30625C9.72656 2.23594 9.97031 2.18438 10.2188 2.16563C10.2609 2.17969 9.19219 2.60156 8.475 2.82188C8.71406 2.74688 8.9625 2.68125 9.02344 2.68125C9.06563 2.68125 9.02344 2.70938 8.85 2.78438C9.06094 2.72344 9.15 2.69531 9.15937 2.69531C9.17344 2.69531 8.87813 2.79375 8.60156 2.89219C8.32031 2.99063 8.05312 3.08906 8.12812 3.08906C8.14687 3.08906 8.19844 3.07969 8.27813 3.06563C8.03906 3.19688 7.95469 3.24844 7.96875 3.24844C7.99219 3.24844 8.2875 3.10781 8.59219 2.96719C8.89219 2.82656 9.19688 2.68594 9.23906 2.68594C9.2625 2.68594 9.20156 2.73281 8.99531 2.85469C8.71406 2.97656 8.43281 3.09844 8.5125 3.09844C8.55 3.09844 8.65781 3.075 8.86875 3.01406C8.4 3.25313 9.20156 3.15938 8.92969 3.48281C9.07969 3.34219 9.14062 3.29531 9.15469 3.29531C9.16875 3.29531 9.13125 3.35156 9.09375 3.40781C9.05625 3.46406 9.02812 3.52031 9.06094 3.52031H9.07031C8.74219 3.87656 9.3 3.55781 8.90156 3.87656C9.20156 3.74062 9.7125 3.51562 9.48281 3.51562C9.42656 3.51562 9.31875 3.52969 9.15 3.56719C9.45469 3.21094 10.3172 3.19688 10.3359 3.15469C10.5516 3.16875 10.5562 3.33281 10.5187 3.63281C10.5234 4.10625 10.9875 4.11562 10.9266 4.3875C10.9266 4.38281 10.9219 4.38281 10.9219 4.38281C10.9125 4.38281 10.9078 4.47656 10.8797 4.575C10.8469 4.66875 10.7906 4.76719 10.6688 4.76719C10.6031 4.76719 10.5188 4.73906 10.4156 4.66875C10.2703 4.93125 10.1391 5.025 10.0359 5.025C9.88125 5.025 9.7875 4.81406 9.79688 4.62187C9.96562 4.52812 10.1859 3.75 9.94219 3.75C9.90469 3.75 9.85781 3.76875 9.79688 3.81094C10.1766 4.74375 8.29688 4.12031 9.36094 4.54688C9.12188 4.86094 9.51094 4.84688 9.39844 5.22656C9.58125 5.27812 9.78281 5.325 9.96094 5.325C10.2234 5.325 10.425 5.2125 10.4016 4.81875C10.7297 4.99219 10.0734 5.57812 10.725 5.57812H10.7625C11.0766 6.15469 12.2531 5.95781 11.3297 6.56719C11.2781 6.83438 11.4469 6.88125 11.6625 6.88125C11.7187 6.88125 11.7797 6.87656 11.8406 6.87188C11.9016 6.86719 11.9625 6.86719 12.0187 6.86719C12.2625 6.86719 12.4359 6.92812 12.2859 7.30781C12.3938 7.70156 12.1406 7.875 11.8312 7.875C11.4562 7.875 10.9969 7.63125 10.9641 7.22812C10.7625 6.92344 10.5047 6.79688 10.2375 6.79688C9.81562 6.79688 9.37031 7.11562 9.07969 7.50937C9.05625 7.54688 9.0375 7.56094 9.02813 7.56094C9.00469 7.56094 9.02812 7.46719 9.0375 7.37344C9.04687 7.29844 9.04688 7.22344 9.01875 7.2C9.43594 7.08281 9.75469 6.57656 9.61406 6.57656C9.56719 6.57656 9.46875 6.63281 9.30938 6.78281H9.28594C9.02344 6.78281 8.81719 6.98906 8.65781 7.19531C8.49375 7.40156 8.37187 7.60781 8.26406 7.60781C8.22187 7.60781 8.17969 7.57031 8.14219 7.48594C8.16094 7.45781 8.20781 7.37812 8.23125 7.29844C8.25938 7.2 8.25937 7.10156 8.13281 7.10156C8.08125 7.10156 8.01094 7.12031 7.9125 7.15781C7.59375 7.07344 8.11406 6.24375 7.69219 6.24375C7.65 6.24375 7.59844 6.25313 7.53281 6.27188C7.5375 6.41719 7.47188 6.46875 7.41094 6.46875C7.28906 6.46875 7.16719 6.29531 7.4625 6.24375C7.35 6.13594 7.28437 6.09375 7.2375 6.09375C7.07344 6.09375 7.20469 6.6375 6.6375 6.6375C6.44531 7.09219 8.30625 6.67031 7.71094 7.54219C7.575 7.64062 7.40625 7.65937 7.24219 7.65937C7.19062 7.65937 7.14375 7.65938 7.09687 7.65469C7.05 7.65469 7.00312 7.65 6.96094 7.65C6.67031 7.65 6.46406 7.72031 6.59063 8.32031C6.74531 8.43281 6.91875 8.47031 7.09687 8.47031C7.25625 8.47031 7.41562 8.44219 7.57031 8.41406C7.725 8.38594 7.875 8.35781 8.01094 8.35781C8.22187 8.35781 8.39063 8.42813 8.49375 8.67188C9.04219 8.44687 9.76406 8.4375 9.69375 7.75781C10.65 7.89375 11.6484 7.82344 12.3516 8.40937C12.3938 9.26719 13.8656 9.54375 13.5094 10.5187C13.9359 11.4187 12.9937 12.6797 12.0328 12.6797C12 12.6797 11.9625 12.6797 11.9297 12.675C11.4047 12.6703 10.875 12.4359 10.4109 12.4359C10.1719 12.4359 9.95625 12.4969 9.76875 12.6844C9.72656 12.6797 9.68906 12.675 9.65625 12.675C8.93906 12.675 9.88594 13.8141 9.02813 14.0062C8.25 14.8125 9.50625 15.6422 8.89219 16.4156C8.82656 17.0203 8.52656 17.5266 8.52656 18.1172C8.44687 18.1266 8.37187 18.1312 8.29219 18.1312C7.30313 18.1312 6.68438 17.2687 6.10313 16.6172C6.28125 15.6422 4.72031 15.45 5.25469 14.3578C5.50313 13.1625 4.07812 12.4547 4.15781 11.2594C4.14375 11.0906 4.19062 11.0391 4.26094 11.0391C4.33125 11.0391 4.43438 11.0906 4.53281 11.1375C4.63594 11.1891 4.74844 11.2359 4.8375 11.2359C4.95469 11.2359 5.04375 11.1562 5.05312 10.8937C5.74219 10.2516 6.05625 9.37969 6.69844 8.67188C5.86406 9.075 5.39062 9.98438 5.00625 10.8094C4.97344 10.8188 4.94063 10.8234 4.90313 10.8234C4.22344 10.8234 3.27656 9.19688 4.30781 8.80313C4.36406 8.95781 4.43906 9.01406 4.52813 9.01406C4.68281 9.01406 4.86094 8.82656 4.9875 8.64375C5.11406 8.45625 5.17969 8.26875 5.10938 8.26875C5.0625 8.26875 4.95938 8.34375 4.78125 8.54062C4.57969 8.66719 4.38281 8.7 4.17656 8.7C3.975 8.7 3.76875 8.66719 3.55312 8.64844C3.28125 8.75625 3.16406 9.10312 3.07969 9.10312C3.06563 9.10312 3.04688 9.08906 3.03281 9.05625C2.81719 9.57187 2.56875 10.4906 2.34375 10.7391C2.46094 9.95156 2.48906 9.11719 2.69062 8.34375ZM5.30625 7.26094C5.83594 7.125 6.00937 6.46875 6.42656 6.08906C6.43125 5.98594 6.27656 6.00469 6.31406 5.83125C5.75156 6.00469 5.93438 6.17812 5.98594 6.21094C5.77969 6.55312 5.20312 6.7875 5.30625 7.26094ZM12.5859 3.69375C13.0969 3.84375 13.1672 3.67969 13.0781 3.99375C13.0406 4.02187 12.9703 4.03125 12.9 4.03125C12.6516 4.03594 12.3141 3.89063 12.5859 3.69375ZM5.08125 16.6078C4.41094 16.0406 4.32656 15.3656 4.29375 14.6813C4.59375 15.2672 5.48438 15.9141 5.08125 16.6078ZM8.13281 7.46719C8.1375 7.47188 8.1375 7.47188 8.1375 7.47656C8.13281 7.48594 8.12812 7.48594 8.12812 7.48594C8.12812 7.48594 8.12813 7.48125 8.13281 7.46719ZM12 0C18.6281 0 24 5.37188 24 12C24 18.6281 18.6281 24 12 24C5.37188 24 0 18.6281 0 12C0 5.37188 5.37188 0 12 0ZM12 23.0766C18.1172 23.0766 23.0766 18.1172 23.0766 12C23.0766 5.88281 18.1172 0.923438 12 0.923438C5.88281 0.923438 0.923439 5.88281 0.923439 12C0.923439 18.1172 5.88281 23.0766 12 23.0766Z" fill="green"/>
</g>
<defs>
<clipPath id="clip0_28_175">
<rect width="24" height="24" fill="white" transform="matrix(-1 0 0 1 24 0)"/>
</clipPath>
</defs>
</svg>
